<?xml version="1.0" standalone="no"?>
<!DOCTYPE svg PUBLIC "-//W3C//DTD SVG 20010904//EN"
 "http://www.w3.org/TR/2001/REC-SVG-20010904/DTD/svg10.dtd">
<svg version="1.0" xmlns="http://www.w3.org/2000/svg"
 width="486.000000pt" height="234.000000pt" viewBox="0 0 486.000000 234.000000"
 preserveAspectRatio="xMidYMid meet">

<g transform="translate(0.000000,234.000000) scale(0.100000,-0.100000)"
fill="#FFFFFF" stroke="none">
<path d="M1130 1916 c0 -2 7 -6 15 -10 8 -3 15 -1 15 4 0 6 -7 10 -15 10 -8 0
-15 -2 -15 -4z"/>
<path d="M1097 1873 c-15 -8 -148 -132 -295 -276 -147 -144 -316 -307 -375
-361 -95 -89 -124 -128 -80 -112 10 4 13 2 10 -8 -4 -10 37 -56 119 -135 145
-139 628 -561 642 -561 14 0 661 658 683 695 69 110 -37 21 -359 -306 l-313
-318 -162 142 c-379 334 -557 498 -557 514 0 4 76 81 170 171 93 90 169 169
167 175 -1 7 5 12 14 12 9 0 94 75 189 167 l173 167 46 -37 c25 -20 39 -28 31
-18 -14 18 -13 19 3 13 11 -4 16 -3 12 3 -3 5 -20 13 -37 18 -18 4 -34 14 -36
21 -3 8 0 11 7 7 6 -4 11 -2 11 3 0 6 -3 11 -7 11 -13 0 -93 -51 -93 -59 0 -5
-16 -18 -35 -30 -19 -11 -34 -26 -33 -32 3 -11 -89 -89 -104 -89 -4 0 31 40
78 89 79 83 149 131 189 131 8 0 37 -24 65 -52 42 -44 47 -54 32 -59 -9 -4
-21 -4 -27 -1 -19 11 142 -162 179 -192 27 -22 39 -27 46 -18 6 7 8 10 4 8 -7
-5 -54 39 -54 50 0 5 -16 18 -35 28 -30 17 -105 94 -105 109 0 3 10 3 22 -1
12 -3 83 -64 158 -136 220 -213 201 -187 -40 57 -239 242 -241 243 -303 210z
m-424 -435 c-4 -7 -8 -16 -8 -20 0 -18 -15 -18 -15 0 0 17 8 26 28 31 2 1 0
-5 -5 -11z m-83 -98 c-19 -16 -48 -40 -63 -54 -16 -15 -32 -26 -36 -26 -5 0
-16 -10 -24 -22 -9 -13 -16 -18 -16 -13 -2 21 137 142 164 144 6 0 -6 -13 -25
-29z m-200 -245 c7 -9 8 -15 2 -15 -5 0 -12 7 -16 15 -3 8 -4 15 -2 15 2 0 9
-7 16 -15z m85 -75 c16 -16 24 -30 19 -30 -6 0 -23 14 -39 30 -16 17 -24 30
-19 30 6 0 23 -13 39 -30z m75 -60 c0 -5 -2 -10 -4 -10 -3 0 -8 5 -11 10 -3 6
-1 10 4 10 6 0 11 -4 11 -10z m61 -40 c19 -11 27 -40 11 -40 -5 0 -19 11 -32
25 -24 26 -14 33 21 15z m85 -82 c15 -19 16 -20 2 -9 -15 11 -18 11 -18 0 0
-9 -3 -10 -11 -2 -6 6 -8 16 -5 22 9 15 10 14 32 -11z m109 -88 c10 -11 13
-20 7 -20 -7 0 -12 4 -12 9 0 5 -12 14 -27 19 -23 9 -25 11 -7 11 11 1 29 -8
39 -19z m102 -120 c14 -11 21 -20 15 -20 -12 0 -60 39 -49 40 5 0 20 -9 34
-20z m88 -70 c3 -5 1 -10 -4 -10 -6 0 -11 5 -11 10 0 6 2 10 4 10 3 0 8 -4 11
-10z"/>




<path d="M1555 1420 c10 -11 20 -20 23 -20 3 0 -3 9 -13 20 -10 11 -20 20 -23
20 -3 0 3 -9 13 -20z"/>
<path d="M990 1335 c-25 -19 -92 -83 -149 -142 -57 -60 -96 -95 -86 -79 51 83
56 96 50 116 -11 35 -32 22 -78 -47 -96 -145 -116 -203 -79 -236 10 -10 21
-17 24 -17 3 0 53 55 111 123 99 115 185 204 175 182 -2 -5 -25 -53 -51 -106
-49 -100 -58 -148 -32 -169 13 -11 33 5 131 109 64 66 120 121 124 121 5 0 -9
-38 -30 -84 -53 -114 -74 -181 -66 -211 9 -36 23 -31 29 13 4 20 40 105 82
187 41 83 73 156 70 163 -15 41 -123 -25 -234 -143 -33 -36 -61 -62 -61 -58 0
4 33 68 74 141 70 126 73 133 58 152 -17 20 -18 20 -62 -15z"/>
<path d="M1350 1345 c-84 -28 -110 -42 -110 -60 0 -19 -1 -19 55 5 26 11 52
20 60 20 7 0 -7 -38 -39 -97 -44 -86 -55 -99 -81 -103 -36 -6 -43 -36 -7 -33
12 2 22 2 22 0 0 -1 -9 -26 -20 -55 -23 -59 -26 -112 -8 -130 19 -19 25 -15
32 21 4 17 23 67 42 109 l36 77 74 6 c87 9 89 25 3 25 l-59 0 50 100 c28 56
58 104 68 108 9 3 51 7 93 7 58 0 75 3 71 13 -8 22 -204 13 -282 -13z"/>


</g>
</svg>
