<?xml version="1.0" standalone="no"?>
<!DOCTYPE svg PUBLIC "-//W3C//DTD SVG 20010904//EN"
 "http://www.w3.org/TR/2001/REC-SVG-20010904/DTD/svg10.dtd">
<svg version="1.0" xmlns="http://www.w3.org/2000/svg"
 width="486.000000pt" height="234.000000pt" viewBox="0 0 486.000000 234.000000"
 preserveAspectRatio="xMidYMid meet">

<g transform="translate(0.000000,234.000000) scale(0.100000,-0.100000)"
fill="#FF2400" stroke="none">
<path d="M1130 1916 c0 -2 7 -6 15 -10 8 -3 15 -1 15 4 0 6 -7 10 -15 10 -8 0
-15 -2 -15 -4z"/>
<path d="M1097 1873 c-15 -8 -148 -132 -295 -276 -147 -144 -316 -307 -375
-361 -95 -89 -124 -128 -80 -112 10 4 13 2 10 -8 -4 -10 37 -56 119 -135 145
-139 628 -561 642 -561 14 0 661 658 683 695 69 110 -37 21 -359 -306 l-313
-318 -162 142 c-379 334 -557 498 -557 514 0 4 76 81 170 171 93 90 169 169
167 175 -1 7 5 12 14 12 9 0 94 75 189 167 l173 167 46 -37 c25 -20 39 -28 31
-18 -14 18 -13 19 3 13 11 -4 16 -3 12 3 -3 5 -20 13 -37 18 -18 4 -34 14 -36
21 -3 8 0 11 7 7 6 -4 11 -2 11 3 0 6 -3 11 -7 11 -13 0 -93 -51 -93 -59 0 -5
-16 -18 -35 -30 -19 -11 -34 -26 -33 -32 3 -11 -89 -89 -104 -89 -4 0 31 40
78 89 79 83 149 131 189 131 8 0 37 -24 65 -52 42 -44 47 -54 32 -59 -9 -4
-21 -4 -27 -1 -19 11 142 -162 179 -192 27 -22 39 -27 46 -18 6 7 8 10 4 8 -7
-5 -54 39 -54 50 0 5 -16 18 -35 28 -30 17 -105 94 -105 109 0 3 10 3 22 -1
12 -3 83 -64 158 -136 220 -213 201 -187 -40 57 -239 242 -241 243 -303 210z
m-424 -435 c-4 -7 -8 -16 -8 -20 0 -18 -15 -18 -15 0 0 17 8 26 28 31 2 1 0
-5 -5 -11z m-83 -98 c-19 -16 -48 -40 -63 -54 -16 -15 -32 -26 -36 -26 -5 0
-16 -10 -24 -22 -9 -13 -16 -18 -16 -13 -2 21 137 142 164 144 6 0 -6 -13 -25
-29z m-200 -245 c7 -9 8 -15 2 -15 -5 0 -12 7 -16 15 -3 8 -4 15 -2 15 2 0 9
-7 16 -15z m85 -75 c16 -16 24 -30 19 -30 -6 0 -23 14 -39 30 -16 17 -24 30
-19 30 6 0 23 -13 39 -30z m75 -60 c0 -5 -2 -10 -4 -10 -3 0 -8 5 -11 10 -3 6
-1 10 4 10 6 0 11 -4 11 -10z m61 -40 c19 -11 27 -40 11 -40 -5 0 -19 11 -32
25 -24 26 -14 33 21 15z m85 -82 c15 -19 16 -20 2 -9 -15 11 -18 11 -18 0 0
-9 -3 -10 -11 -2 -6 6 -8 16 -5 22 9 15 10 14 32 -11z m109 -88 c10 -11 13
-20 7 -20 -7 0 -12 4 -12 9 0 5 -12 14 -27 19 -23 9 -25 11 -7 11 11 1 29 -8
39 -19z m102 -120 c14 -11 21 -20 15 -20 -12 0 -60 39 -49 40 5 0 20 -9 34
-20z m88 -70 c3 -5 1 -10 -4 -10 -6 0 -11 5 -11 10 0 6 2 10 4 10 3 0 8 -4 11
-10z"/>
<path d="M1960 1350 l0 -320 30 0 30 0 0 83 0 83 73 71 72 72 123 -154 c122
-153 124 -155 163 -155 21 0 39 3 39 6 0 3 -61 82 -135 175 -74 93 -135 175
-135 181 0 7 60 72 132 145 l133 133 -45 0 -45 0 -187 -192 -187 -193 0 193
-1 192 -30 0 -30 0 0 -320z"/>
<path d="M2708 1368 c-75 -167 -140 -311 -143 -320 -6 -15 -1 -18 27 -18 34 0
36 2 73 85 l38 85 176 0 177 0 35 -82 c35 -81 36 -83 74 -86 32 -3 37 -1 31
14 -4 10 -68 154 -144 321 l-137 303 -35 0 -36 0 -136 -302z m248 54 c37 -84
65 -155 62 -157 -3 -3 -69 -4 -146 -3 l-141 3 72 162 c40 89 75 158 79 155 3
-4 37 -76 74 -160z"/>
<path d="M3188 1643 c10 -16 69 -101 130 -189 l112 -162 0 -131 0 -131 35 0
35 0 0 125 0 125 133 192 134 193 -30 3 c-16 2 -35 1 -42 -2 -7 -2 -59 -73
-115 -155 -56 -83 -105 -151 -109 -151 -5 0 -55 70 -112 155 l-104 154 -43 1
-43 0 19 -27z"/>
<path d="M3887 1368 c-75 -167 -139 -311 -143 -320 -5 -15 0 -18 28 -18 33 0
35 3 72 85 l38 85 177 0 177 0 35 -82 c35 -81 36 -83 74 -86 31 -3 37 -1 32
12 -4 9 -68 153 -144 321 l-138 305 -35 0 -36 0 -137 -302z m249 54 c37 -84
65 -155 62 -157 -3 -3 -69 -4 -146 -3 l-141 3 72 162 c40 89 75 159 79 155 3
-4 37 -76 74 -160z"/>
<path d="M1555 1420 c10 -11 20 -20 23 -20 3 0 -3 9 -13 20 -10 11 -20 20 -23
20 -3 0 3 -9 13 -20z"/>
<path d="M990 1335 c-25 -19 -92 -83 -149 -142 -57 -60 -96 -95 -86 -79 51 83
56 96 50 116 -11 35 -32 22 -78 -47 -96 -145 -116 -203 -79 -236 10 -10 21
-17 24 -17 3 0 53 55 111 123 99 115 185 204 175 182 -2 -5 -25 -53 -51 -106
-49 -100 -58 -148 -32 -169 13 -11 33 5 131 109 64 66 120 121 124 121 5 0 -9
-38 -30 -84 -53 -114 -74 -181 -66 -211 9 -36 23 -31 29 13 4 20 40 105 82
187 41 83 73 156 70 163 -15 41 -123 -25 -234 -143 -33 -36 -61 -62 -61 -58 0
4 33 68 74 141 70 126 73 133 58 152 -17 20 -18 20 -62 -15z"/>
<path d="M1350 1345 c-84 -28 -110 -42 -110 -60 0 -19 -1 -19 55 5 26 11 52
20 60 20 7 0 -7 -38 -39 -97 -44 -86 -55 -99 -81 -103 -36 -6 -43 -36 -7 -33
12 2 22 2 22 0 0 -1 -9 -26 -20 -55 -23 -59 -26 -112 -8 -130 19 -19 25 -15
32 21 4 17 23 67 42 109 l36 77 74 6 c87 9 89 25 3 25 l-59 0 50 100 c28 56
58 104 68 108 9 3 51 7 93 7 58 0 75 3 71 13 -8 22 -204 13 -282 -13z"/>
<path d="M1680 920 c0 -7 513 -10 1520 -10 1007 0 1520 3 1520 10 0 7 -513 10
-1520 10 -1007 0 -1520 -3 -1520 -10z"/>
<path d="M2050 825 c-10 -11 -10 -19 -2 -27 15 -15 44 -2 40 19 -4 23 -22 27
-38 8z"/>
<path d="M2144 825 c-7 -18 3 -35 21 -35 18 0 26 15 19 34 -8 20 -33 21 -40 1z"/>
<path d="M3681 831 c-19 -12 -6 -43 16 -39 10 2 18 12 18 22 0 22 -14 29 -34
17z"/>
<path d="M4347 834 c-16 -16 -7 -44 14 -44 15 0 20 5 17 22 -3 22 -19 33 -31
22z"/>
<path d="M3873 759 c-39 -11 -73 -52 -73 -88 0 -40 27 -71 86 -97 74 -32 94
-74 54 -114 -22 -22 -72 -26 -113 -11 -23 9 -37 0 -37 -24 0 -1 20 -8 45 -14
87 -22 165 22 165 93 0 45 -25 75 -86 102 -56 25 -79 53 -69 84 9 30 43 43 91
36 31 -4 44 -2 48 9 3 8 2 16 -2 18 -19 11 -80 14 -109 6z"/>
<path d="M1566 723 c-3 -21 -8 -87 -11 -148 -3 -60 -9 -122 -11 -137 -5 -23
-2 -28 14 -28 25 0 32 18 32 83 0 29 3 89 7 134 l6 82 49 -149 c38 -115 53
-150 66 -150 13 0 29 34 65 138 27 75 51 144 55 152 5 13 9 -40 21 -267 1 -16
7 -23 22 -23 24 0 23 -16 3 268 -6 82 -7 82 -34 82 -27 0 -30 -6 -69 -115 -22
-64 -44 -127 -47 -141 -4 -14 -10 -22 -14 -17 -3 4 -26 68 -51 141 -42 126
-45 132 -70 132 -24 0 -28 -5 -33 -37z"/>
<path d="M1982 628 c5 -146 16 -183 64 -208 36 -20 106 -17 139 4 44 29 55 72
55 211 0 117 -1 125 -19 125 -18 0 -20 -10 -23 -134 -3 -126 -4 -136 -27 -160
-15 -16 -35 -26 -52 -26 -75 0 -89 31 -89 195 l0 125 -26 0 -27 0 5 -132z"/>
<path d="M2340 585 c0 -168 1 -175 20 -175 18 0 20 7 20 85 l0 85 85 0 85 0 0
-85 c0 -84 0 -85 25 -85 l25 0 0 175 0 175 -25 0 c-24 0 -25 -2 -25 -75 l0
-75 -85 0 -85 0 0 75 c0 68 -2 75 -20 75 -19 0 -20 -7 -20 -175z"/>
<path d="M2690 585 l0 -175 95 0 c77 0 95 3 95 15 0 11 -17 15 -72 17 l-73 3
0 65 0 65 68 3 c51 2 67 6 67 17 0 12 -15 15 -70 15 l-71 0 3 58 3 57 73 3
c55 2 72 6 72 17 0 12 -18 15 -95 15 l-95 0 0 -175z"/>
<path d="M2960 585 c0 -171 0 -175 21 -175 20 0 21 3 17 145 -1 80 -3 145 -2
145 0 0 40 -65 89 -145 73 -119 93 -145 112 -145 l23 0 0 175 c0 168 -1 175
-20 175 -19 0 -20 -7 -20 -141 l0 -142 -63 104 c-103 169 -110 179 -134 179
-23 0 -23 0 -23 -175z"/>
<path d="M3317 753 c-4 -3 -7 -82 -7 -175 l0 -168 78 0 c61 0 88 5 122 23 82
41 114 152 69 243 -28 60 -81 84 -180 84 -42 0 -79 -3 -82 -7z m169 -39 c43
-21 67 -65 68 -124 0 -89 -48 -140 -139 -148 l-55 -4 0 146 0 146 46 0 c25 0
61 -7 80 -16z"/>
<path d="M3670 585 l0 -175 25 0 25 0 0 175 0 175 -25 0 -25 0 0 -175z"/>
<path d="M4080 585 l0 -175 95 0 c77 0 95 3 95 15 0 11 -17 15 -72 17 l-73 3
-3 158 c-2 149 -4 157 -22 157 -19 0 -20 -7 -20 -175z"/>
<path d="M4340 585 c0 -168 1 -175 20 -175 19 0 20 7 20 175 0 168 -1 175 -20
175 -19 0 -20 -7 -20 -175z"/>
<path d="M4470 585 l0 -175 25 0 c24 0 25 2 25 68 1 67 22 121 38 96 95 -148
108 -164 130 -164 12 0 22 2 22 5 0 3 -27 46 -60 95 -33 49 -60 95 -60 101 0
6 25 40 55 74 30 35 55 66 55 69 0 3 -10 6 -23 6 -16 0 -40 -23 -87 -81 l-65
-81 -3 81 c-3 79 -4 81 -27 81 l-25 0 0 -175z"/>
</g>
</svg>
